<!-- Save this content as ./assets/images/icon-settings.svg -->
<svg
    xmlns="http://www.w3.org/2000/svg"
    viewBox="0 0 24 24"
    width="24"
    height="24"
    style="fill: var(--orange-yellow-crayola);" 
>
    <path d="M19.43 12.98c.04-.32.07-.65.07-.98s-.03-.66-.07-.98l2.11-1.65c.19-.15.24-.42.12-.64l-2-3.46a.492.492 0 0 0-.61-.22l-2.49 1a8.12 8.12 0 0 0-1.69-.98l-.38-2.65A.503.503 0 0 0 14 2h-4c-.24 0-.45.17-.49.41l-.38 2.65a8.12 8.12 0 0 0-1.69.98l-2.49-1a.49.49 0 0 0-.61.22l-2 3.46c-.12.22-.07.49.12.64l2.11 1.65c-.04.32-.07.65-.07.98s.03.66.07.98L2.49 14.63a.492.492 0 0 0-.12.64l2 3.46c.12.22.39.3.61.22l2.49-1c.53.38 1.09.71 1.69.98l.38 2.65c.04.24.25.41.49.41h4c.24 0 .45-.17.49-.41l.38-2.65c.6-.27 1.16-.6 1.69-.98l2.49 1c.23.09.49 0 .61-.22l2-3.46a.492.492 0 0 0-.12-.64l-2.11-1.65zM12 15.5c-1.93 0-3.5-1.57-3.5-3.5s1.57-3.5 3.5-3.5 3.5 1.57 3.5 3.5-1.57 3.5-3.5 3.5z"/>
</svg>
